<?xml version="1.0" encoding="UTF-8"?>
<svg id="_レイヤー_1" data-name="レイヤー 1" xmlns="http://www.w3.org/2000/svg" width="130.06" height="191.2" xmlns:xlink="http://www.w3.org/1999/xlink" viewBox="0 0 130.06 191.2">
  <defs>
    <style>
      .cls-1 {
        fill: #fd7e38;
      }

      .cls-2 {
        fill: #3a1307;
      }

      .cls-3 {
        fill: #441302;
      }

      .cls-4 {
        fill: #fff;
      }

      .cls-5 {
        fill: url(#_名称未設定グラデーション_627);
      }

      .cls-6 {
        fill: #fe6c13;
      }

      .cls-7 {
        fill: #1f1918;
      }

      .cls-8 {
        fill: #15120d;
      }
    </style>
    <linearGradient id="_名称未設定グラデーション_627" data-name="名称未設定グラデーション 627" x1="10.81" y1="52.93" x2="131.4" y2="173.52" gradientUnits="userSpaceOnUse">
      <stop offset="0" stop-color="#fe6c13"/>
      <stop offset="1" stop-color="#c2520f"/>
    </linearGradient>
  </defs>
  <path class="cls-3" d="M20.75,49.3C22.7,23.74,33.66,0,39.01,0s21.48,20.61,23.87,34.3c7.04-8.87,25.57-19.17,39.65-19.17,7.04,0,6.91,3.78,6.91,7.43s-.78,32.87-14.61,42.65c-29.48-6.78-77.09,10.43-74.09-15.91Z"/>
  <path class="cls-1" d="M27.8,38.62c0-5.23,8.32-27.59,11.45-27.59s14.28,17.22,15.16,24.16c.88,6.95,8.61,7.73,8.61,7.73,0,0,27-16.92,36.2-16.53.91,6.26,0,21.33-6.95,29.35-34.73-1.66-64.47-11.89-64.47-17.12Z"/>
  <path class="cls-4" d="M29.99,176.1s19.47,14.09,47.84,14.09,28.08-2.35,28.08-2.35l-14.48-28.57-32.43-7.83-29.01,24.65Z"/>
  <path class="cls-2" d="M3.8,68.96s-7.63.57-1.27,7.52,12.72,13.32,23.92,16.44-15.41-18.1-15.41-18.1l-1.57-6.75-5.67.9Z"/>
  <path class="cls-7" d="M16.21,139.29s4.61,20.15,4.61,24.65-2.84,4.89-5.77,6.65-12.23,7.73,5.77,10.66c3.23.59,6.07-.78,6.07-.78,0,0,18.33,10.73,45.07,10.73s25.44-.36,36-2.72c0,0-49.76,6.9-75.39-12.8,13.94-10.92,18.05-14.51,18.05-14.51l25.24-13.96,9.33-6.91-6.59-20.35-4.57,2.47-57.82,16.87Z"/>
  <path class="cls-6" d="M25.81,92.6s-11.6,15.18-11.6,34.65,13.01,24.98,13.01,24.98c0,0,.49-9.72,1.57-15.88s6.16-41.68,6.16-41.68l-9.14-2.07Z"/>
  <path class="cls-4" d="M8.89,71.7s1.24,4.42-1.89,6.77c5.09,5.18,15.16,13.99,26.61,17.22-4.01,2.25-12.42,13.01-12.42,28.76s6.36,22.4,6.36,22.4l1.27-5.87s.68,4.5,3.72,8.12c2.93-5.48,4.7-8.32,6.55-9.68.2,2.05-.68,9.59.49,12.82,3.03-4.7,14.18-18.44,14.18-18.44l12.52-13.16-.68-21.33,28.86-11.74,5.67-6.36-21.52-13.99-17.9,1.37-21.33-.2-30.49,3.31Z"/>
  <path class="cls-5" d="M113.63,77.96s-23.09-47.35-62.74-47.35c-31.57,0-34.43,22.7-35.09,24.65s-3.26,12.52-12,13.7c4.04.13,5.09,2.74,5.09,2.74,0,0,19.7,2.48,30.52-1.43,6.13-2.35,7.7.39,9.78,1.17,5.22,1.83,10.3-1.57,19.04-1.7,9.52.13,19.7,4.3,30,12.39-5.09,5.09-17.5,12.65-38.03,15.65,1.64,3.13,1.25,6.26,1.25,11.61s-2.48,16.96-7.7,24.39c-.91,4.7-.52,16.43.65,16.83s3.26-3.13,7.3-4.96,16.43-5.74,15.78-23.48c0-7.04,3,18.39,6.13,18-9.91,2.35-30.39,15.26-42.13,28.57,12.52-9.52,22.83-13.17,27.39-13.17s16.3,9.65,22.83,10.43c2.48.39-2.48,3.78-6.13,6.52s-6.91,5.22-6.91,6.78,15.13,10.04,19.83,10.04,31.57-.65,31.57-24.13c0-17.48-20.09-25.7-26.22-29.35s-22.83-19.17-22.83-29.22-.91-11.61,4.17-12.78,22.04-10.43,28.43-15.91Z"/>
  <ellipse class="cls-8" cx="18.72" cy="65.1" rx="6.88" ry="4.47" transform="translate(-47.52 50.94) rotate(-61.89)"/>
  <ellipse class="cls-8" cx="47.58" cy="68" rx="7.99" ry="6.33" transform="translate(-35.13 61.15) rotate(-50.29)"/>
</svg>